<svg xmlns="http://www.w3.org/2000/svg" viewBox="0 0 188.64 246"><path d="M96.55,83.05a9.82,9.82,0,0,0,8.09,9.68c.76.13,1.51.27,2.25.43a59.76,59.76,0,1,1-72.41,58.52V43.78A10.34,10.34,0,0,0,24.14,33.44h0V151.68a70,70,0,1,0,82.75-69.06L96.55,80.76Zm10.34-14.41a83.89,83.89,0,1,1-96.55,83V60.5A10.34,10.34,0,0,0,0,50.16H0V151.68a94.21,94.21,0,1,0,102.14-94l-5.59-.47h0a11.48,11.48,0,0,0,9.84,11.35Zm-34.48,83a21.92,21.92,0,0,0,10.34,18.61v-52.4a35.71,35.71,0,1,1-24.14,33.79V27.06A10.33,10.33,0,0,0,48.28,16.72h0v135a46,46,0,1,0,92.08-.52c-.44-26-20.61-44.91-46-45.52a46.43,46.43,0,0,0-11.57,1.46V10.34A10.34,10.34,0,0,0,72.41,0h0V151.68Z" style="fill:#8a183a;fill-rule:evenodd"/></svg>